<svg version="1.1" id="Layer_1" xmlns="http://www.w3.org/2000/svg" xmlns:xlink="http://www.w3.org/1999/xlink" x="0px" y="0px"
	 width="100%" viewBox="0 0 2128 2001" enable-background="new 0 0 2128 2001" xml:space="preserve">
<path fill="#000000" opacity="1.000000" stroke="none" 
	d="
M1220.000000,2004.000000 
	C813.382324,2004.000000 407.764679,2004.000000 2.073518,2004.000000 
	C2.073518,1336.796265 2.073518,669.592590 2.073518,2.194458 
	C711.117981,2.194458 1420.235962,2.194458 2129.677002,2.194458 
	C2129.677002,669.333191 2129.677002,1336.666626 2129.677002,2004.000000 
	C1826.925293,2004.000000 1523.962646,2004.000000 1220.000000,2004.000000 
M1054.331177,1691.000000 
	C1054.331055,1309.025513 1054.298096,927.050903 1054.507935,545.076477 
	C1054.513550,534.886475 1053.626587,526.715515 1042.395996,523.389160 
	C1040.565308,522.846985 1039.009155,521.301392 1037.390503,520.130615 
	C1014.415100,503.511536 1006.645874,471.832458 1019.661133,446.921631 
	C1033.851440,419.761536 1062.092041,408.591553 1090.825562,417.933472 
	C1113.374390,425.264557 1126.968140,441.925659 1129.874512,465.387268 
	C1132.981445,490.467346 1123.378174,510.964020 1101.043579,523.313782 
	C1091.962891,528.334900 1088.224121,533.755432 1089.636597,543.486267 
	C1089.873413,545.118408 1089.669067,546.814636 1089.669067,548.481201 
	C1089.668945,994.126038 1089.668945,1439.770874 1089.670654,1885.415649 
	C1089.670654,1889.415405 1089.553955,1893.422363 1089.760010,1897.412109 
	C1089.891357,1899.955078 1090.517700,1902.472412 1090.882446,1904.753052 
	C1103.289551,1906.922119 1509.533447,1906.389038 1518.330444,1903.943970 
	C1518.330444,1899.427246 1518.330444,1894.516235 1518.330444,1889.605225 
	C1518.331177,1738.945923 1518.384521,1588.286743 1518.262939,1437.627441 
	C1518.248535,1419.657593 1523.671631,1404.343018 1536.991943,1391.993408 
	C1548.465698,1381.355835 1559.603149,1370.347778 1571.270264,1359.930054 
	C1576.245239,1355.487793 1577.808472,1350.564453 1577.760986,1344.137939 
	C1577.539062,1314.140991 1577.483154,1284.139893 1577.769775,1254.144043 
	C1577.858643,1244.839478 1574.934326,1237.614868 1568.231323,1231.063721 
	C1546.779175,1210.097168 1525.702759,1188.745850 1504.515503,1167.508789 
	C1490.970947,1153.932251 1484.003540,1138.101318 1484.128906,1118.332764 
	C1484.623169,1040.339722 1484.331299,962.341736 1484.330322,884.345581 
	C1484.330200,881.012451 1484.092041,877.660278 1484.366577,874.350281 
	C1484.864746,868.343140 1482.664551,864.886902 1477.011963,861.882996 
	C1470.085815,858.202271 1463.498169,853.264587 1457.981445,847.669861 
	C1442.160034,831.624512 1438.204956,806.691406 1447.295288,786.502319 
	C1457.673340,763.453674 1478.405884,750.068237 1502.490601,750.258972 
	C1528.353394,750.463745 1552.150757,770.083374 1557.842529,794.477356 
	C1564.270752,822.027954 1552.656006,848.245911 1527.553223,860.667969 
	C1520.457031,864.179443 1518.153931,868.283875 1518.178345,875.987366 
	C1518.434814,956.982605 1518.415771,1037.979004 1518.237183,1118.974731 
	C1518.214966,1129.017944 1521.567993,1136.842285 1528.687744,1143.837402 
	C1550.561035,1165.327881 1572.050903,1187.207764 1593.833496,1208.791382 
	C1605.848511,1220.696655 1611.794556,1234.910522 1611.691406,1251.809326 
	C1611.577515,1270.474487 1611.639282,1289.140869 1611.698608,1307.806396 
	C1611.709717,1311.295166 1612.069458,1314.782837 1612.343506,1319.591553 
	C1615.946777,1317.338013 1618.383423,1316.280518 1620.230713,1314.582153 
	C1631.260376,1304.441772 1642.081177,1294.073975 1653.121460,1283.945435 
	C1659.719116,1277.892578 1662.557251,1270.562988 1662.375000,1261.676025 
	C1662.142700,1250.348145 1661.896729,1238.989868 1662.475586,1227.686646 
	C1662.855103,1220.276001 1660.074829,1216.523682 1653.447632,1213.258179 
	C1617.212524,1195.404053 1607.145264,1145.118896 1642.645874,1115.910034 
	C1660.648071,1101.098389 1681.484497,1098.540771 1702.729492,1107.896606 
	C1724.778564,1117.606445 1736.940674,1135.261230 1737.513062,1159.530640 
	C1738.104858,1184.624023 1726.093872,1202.864136 1703.910767,1214.070679 
	C1698.294312,1216.907837 1696.069214,1220.135376 1696.241821,1226.278931 
	C1696.587891,1238.601807 1696.291992,1250.941528 1696.331787,1263.274170 
	C1696.388550,1280.908813 1690.028442,1295.799438 1677.158447,1307.811035 
	C1657.688599,1325.982178 1638.312378,1344.262939 1618.454956,1362.003052 
	C1613.422607,1366.498779 1611.526733,1371.047363 1611.583130,1377.514893 
	C1611.806641,1403.178345 1611.669312,1428.844849 1611.669189,1454.510254 
	C1611.668823,1599.836426 1611.661621,1745.162720 1611.705078,1890.488892 
	C1611.706543,1895.336548 1612.225708,1900.183838 1612.486572,1904.735352 
	C1626.126099,1907.010254 2105.715576,1906.378784 2113.619629,1904.100464 
	C2113.839355,1901.397095 2114.271240,1898.467041 2114.283447,1895.535034 
	C2114.351074,1879.202759 2114.386475,1862.869751 2114.292725,1846.537720 
	C2114.230469,1835.714478 2113.784912,1835.220215 2103.032959,1835.122437 
	C2087.034912,1834.976685 2071.034424,1835.134888 2055.036133,1835.001831 
	C2051.166504,1834.969727 2047.302002,1834.303345 2042.331421,1833.821777 
	C2042.331421,1827.991577 2042.331421,1823.053589 2042.331421,1818.115601 
	C2042.331177,1619.791992 2042.335571,1421.468384 2042.304688,1223.144775 
	C2042.303955,1218.156250 2042.326904,1213.109741 2041.633789,1208.189575 
	C2039.284302,1191.510864 2027.246582,1179.882812 2010.485352,1178.010254 
	C2004.542603,1177.346436 1998.532471,1177.006470 1992.552612,1176.998413 
	C1935.888672,1176.922607 1879.224854,1176.973389 1822.560913,1176.903809 
	C1818.038818,1176.898193 1813.517578,1176.266113 1807.674683,1175.825562 
	C1807.674683,1169.890381 1807.674683,1164.977051 1807.674683,1160.063721 
	C1807.674438,1074.734497 1807.674683,989.405396 1807.673462,904.076233 
	C1807.672974,875.744324 1807.683716,847.412354 1807.659546,819.080444 
	C1807.646118,803.351807 1801.973755,791.037903 1788.079712,782.221252 
	C1753.762207,760.444397 1719.877930,737.985901 1685.768188,715.880371 
	C1616.710938,671.126343 1547.623657,626.418701 1478.540039,581.705322 
	C1462.038208,571.024719 1445.626099,560.197815 1428.950195,549.794983 
	C1408.027588,536.742981 1381.449951,546.532959 1374.996094,569.719727 
	C1373.601074,574.731750 1373.719971,580.260620 1373.718750,585.551514 
	C1373.661865,831.539429 1373.669434,1077.527344 1373.668945,1323.515259 
	C1373.668823,1356.513672 1373.700684,1389.512085 1373.625000,1422.510254 
	C1373.615356,1426.708862 1373.039917,1430.906006 1372.717041,1435.232910 
	C1355.498779,1435.232910 1339.338013,1435.232910 1322.036865,1435.232910 
	C1321.904785,1428.281494 1321.682861,1422.044434 1321.682617,1415.807373 
	C1321.665649,1049.825317 1321.541382,683.843140 1321.948120,317.861542 
	C1321.975342,293.397278 1306.125610,274.978577 1279.681152,275.915344 
	C1265.699585,276.410614 1251.685425,276.042114 1237.686523,275.968170 
	C1234.135132,275.949432 1230.585449,275.565735 1226.348022,275.307892 
	C1226.092773,270.182007 1225.701416,265.934998 1225.697388,261.687592 
	C1225.652222,213.356674 1225.238892,165.020126 1225.868896,116.697403 
	C1226.130615,96.614410 1213.530396,75.972191 1185.304565,75.991997 
	C1109.641602,76.045090 1033.978760,75.977242 958.315918,76.095207 
	C953.712463,76.102386 948.959778,76.783363 944.535278,78.052582 
	C928.088989,82.770355 918.400330,96.507332 918.367737,115.077164 
	C918.281677,164.074615 918.352051,213.072311 918.295959,262.069855 
	C918.291138,266.292084 917.810913,270.513763 917.510315,275.406158 
	C913.102051,275.631561 909.517273,275.957794 905.931213,275.973450 
	C890.598877,276.040344 875.262573,275.806854 859.934509,276.074097 
	C837.997559,276.456604 821.255859,292.915131 822.308960,314.167084 
	C822.523193,318.489471 822.332458,322.831757 822.332397,327.164886 
	C822.332031,685.480652 822.332336,1043.796387 822.331360,1402.112183 
	C822.331360,1410.111816 822.402344,1418.112671 822.268372,1426.110229 
	C822.219971,1428.999878 821.666626,1431.880859 821.279663,1435.337646 
	C804.441711,1435.337646 788.291870,1435.337646 771.007996,1435.337646 
	C770.769104,1429.642212 770.359619,1424.424438 770.358887,1419.206543 
	C770.327026,1190.217773 770.331360,961.229004 770.330872,732.240234 
	C770.330750,682.242676 770.370361,632.244995 770.258850,582.247742 
	C770.248596,577.644409 770.010986,572.804260 768.617004,568.480957 
	C761.232361,545.577271 735.048950,536.917175 713.930176,550.462524 
	C678.594788,573.126221 643.434570,596.063049 608.190247,618.868896 
	C563.996033,647.465881 519.780884,676.030762 475.594269,704.639526 
	C435.323669,730.712952 395.112701,756.878601 354.798828,782.884888 
	C344.957977,789.233215 338.780182,797.799927 337.266724,809.452820 
	C336.669617,814.050232 336.366669,818.719116 336.364655,823.355652 
	C336.315857,935.350159 336.359528,1047.344604 336.291290,1159.339111 
	C336.280426,1177.204834 338.561859,1176.935059 319.163757,1176.943359 
	C263.166504,1176.967285 207.169205,1176.922729 151.172058,1176.999512 
	C145.192291,1177.007690 139.182007,1177.358398 133.240082,1178.029907 
	C117.021149,1179.862793 104.918350,1191.344238 102.470757,1207.478027 
	C101.627083,1213.039307 101.699821,1218.770630 101.698799,1224.424194 
	C101.663170,1422.414429 101.668785,1620.404785 101.668556,1818.395020 
	C101.668556,1823.304199 101.668549,1828.213501 101.668549,1833.905151 
	C96.461678,1834.365967 92.575386,1834.977051 88.684570,1835.007324 
	C72.686272,1835.131714 56.685577,1834.974731 40.687794,1835.129883 
	C30.325163,1835.230347 29.792801,1835.770752 29.720284,1845.817261 
	C29.599991,1862.482300 29.632402,1879.149048 29.734377,1895.814331 
	C29.753729,1898.976929 30.394545,1902.135986 30.715511,1905.001099 
	C49.562660,1907.477295 524.213867,1906.425415 532.330505,1903.685913 
	C532.330505,1899.108765 532.330505,1894.159058 532.330505,1889.209229 
	C532.330505,1720.217529 532.330750,1551.225830 532.327515,1382.234131 
	C532.327454,1379.234497 532.792236,1376.116211 532.125183,1373.267456 
	C531.410706,1370.216431 530.327759,1366.659912 528.174500,1364.630127 
	C509.280518,1346.819702 490.362671,1329.017822 470.943726,1311.786255 
	C455.547302,1298.124023 447.089417,1281.809326 447.616577,1260.984863 
	C447.911713,1249.326294 447.497253,1237.651001 447.721436,1225.989258 
	C447.828461,1220.423462 446.690613,1216.149414 440.660492,1214.495605 
	C439.087769,1214.064331 437.645630,1213.089355 436.203369,1212.260010 
	C408.859741,1196.539062 398.555695,1162.960571 412.339325,1135.249146 
	C426.834961,1106.106201 460.513092,1095.823486 488.025543,1107.706665 
	C513.177063,1118.570068 527.919617,1147.043457 522.113464,1172.243652 
	C517.707275,1191.367920 506.934753,1205.401245 489.362946,1213.862305 
	C483.792847,1216.544434 481.370422,1219.784546 481.572296,1226.018433 
	C481.960449,1238.005249 481.854218,1250.016724 481.627838,1262.011841 
	C481.459351,1270.937866 484.542267,1278.162598 491.115265,1284.183472 
	C501.917542,1294.078613 512.485779,1304.229004 523.283020,1314.129639 
	C525.344482,1316.019897 528.008972,1317.252563 532.328735,1320.033081 
	C532.328735,1314.535889 532.328491,1311.002930 532.328735,1307.469971 
	C532.330017,1289.470825 532.559875,1271.468140 532.268616,1253.473755 
	C531.976807,1235.443359 538.184814,1220.465942 551.082092,1207.816528 
	C572.498047,1186.812256 593.402222,1165.285278 614.859070,1144.323608 
	C622.560913,1136.799561 626.232117,1128.417847 625.780212,1117.633911 
	C625.278320,1105.655640 625.667969,1093.640015 625.667725,1081.640625 
	C625.666321,1012.977295 625.567566,944.313721 625.805359,875.651184 
	C625.830383,868.413086 623.775696,864.250366 617.054138,860.935303 
	C610.632935,857.768433 604.345154,853.319275 599.562500,848.021912 
	C581.633423,828.163025 579.389099,800.951965 592.854980,778.570251 
	C604.376648,759.419861 629.500854,745.313721 656.670349,752.117004 
	C681.089905,758.231812 702.719604,781.524414 701.362366,811.114929 
	C700.306580,834.133057 688.400391,851.448547 667.587463,861.725281 
	C661.573975,864.694519 658.896118,868.208130 659.616882,874.754456 
	C659.979431,878.047241 659.669556,881.413757 659.669495,884.746887 
	C659.668396,963.076355 659.689148,1041.405884 659.617676,1119.735352 
	C659.613159,1124.697266 659.276672,1129.725342 658.429993,1134.607422 
	C656.111206,1147.977783 648.463501,1158.439209 639.175598,1167.788208 
	C617.798340,1189.306396 596.388428,1210.793457 574.796997,1232.095825 
	C568.948547,1237.865845 566.227844,1244.360962 566.273560,1252.559570 
	C566.446533,1283.557007 566.414124,1314.556519 566.275879,1345.554321 
	C566.252197,1350.873657 567.454956,1355.092773 571.643616,1358.775024 
	C579.891113,1366.025269 587.789917,1373.675903 595.753662,1381.244385 
	C601.306580,1386.521729 607.088501,1391.620605 612.130493,1397.359497 
	C622.037842,1408.636475 625.729248,1422.139404 625.720581,1437.050293 
	C625.633118,1587.709595 625.662598,1738.368774 625.693970,1889.028076 
	C625.695068,1894.248779 626.058838,1899.469482 626.276062,1905.295532 
	C769.126709,1905.295532 910.901245,1905.295532 1052.570923,1905.295532 
	C1053.213257,1903.763428 1053.915039,1902.869263 1053.917358,1901.973267 
	C1054.090576,1832.315552 1054.208862,1762.657837 1054.331177,1691.000000 
M591.717163,1729.000000 
	C591.716309,1632.384277 591.400269,1535.766479 591.991089,1439.154419 
	C592.104004,1420.697388 580.212341,1412.657715 566.993713,1401.446167 
	C566.692383,1408.093506 566.309814,1412.606567 566.308960,1417.119629 
	C566.278137,1574.703247 566.283081,1732.286743 566.285278,1889.870361 
	C566.285278,1892.535522 566.135986,1895.217163 566.380371,1897.861084 
	C566.612183,1900.368530 567.270142,1902.836670 567.735657,1905.295166 
	C575.780029,1905.295166 582.949463,1905.295166 589.946045,1905.295166 
	C590.611023,1903.704956 591.318298,1902.801147 591.320984,1901.895142 
	C591.489502,1844.930176 591.600647,1787.965088 591.717163,1729.000000 
M1577.717163,1685.000000 
	C1577.534058,1591.733032 1577.353027,1498.465942 1577.118652,1405.199097 
	C1577.117432,1404.695801 1576.369385,1404.194458 1575.338379,1402.897705 
	C1563.767822,1412.625366 1551.958984,1420.695923 1552.020386,1439.124390 
	C1552.498901,1582.715332 1552.283081,1726.308472 1552.283936,1869.901001 
	C1552.284058,1878.896362 1552.206543,1887.893311 1552.367798,1896.885986 
	C1552.418457,1899.705566 1553.133911,1902.513184 1553.539307,1905.287109 
	C1561.792114,1905.287109 1568.962524,1905.287109 1575.961060,1905.287109 
	C1576.622681,1903.685059 1577.321899,1902.780518 1577.323975,1901.874390 
	C1577.490112,1830.249634 1577.601440,1758.624878 1577.717163,1685.000000 
z"/>
<path fill="#0C4378" opacity="1.000000" stroke="none" 
	d="
M1054.331299,1692.000000 
	C1054.208862,1762.657837 1054.090576,1832.315552 1053.917358,1901.973267 
	C1053.915039,1902.869263 1053.213257,1903.763428 1052.570923,1905.295532 
	C910.901245,1905.295532 769.126709,1905.295532 626.276062,1905.295532 
	C626.058838,1899.469482 625.695068,1894.248779 625.693970,1889.028076 
	C625.662598,1738.368774 625.633118,1587.709595 625.720581,1437.050293 
	C625.729248,1422.139404 622.037842,1408.636475 612.130493,1397.359497 
	C607.088501,1391.620605 601.306580,1386.521729 595.753662,1381.244385 
	C587.789917,1373.675903 579.891113,1366.025269 571.643616,1358.775024 
	C567.454956,1355.092773 566.252197,1350.873657 566.275879,1345.554321 
	C566.414124,1314.556519 566.446533,1283.557007 566.273560,1252.559570 
	C566.227844,1244.360962 568.948547,1237.865845 574.796997,1232.095825 
	C596.388428,1210.793457 617.798340,1189.306396 639.175598,1167.788208 
	C648.463501,1158.439209 656.111206,1147.977783 658.429993,1134.607422 
	C659.276672,1129.725342 659.613159,1124.697266 659.617676,1119.735352 
	C659.689148,1041.405884 659.668396,963.076355 659.669495,884.746887 
	C659.669556,881.413757 659.979431,878.047241 659.616882,874.754456 
	C658.896118,868.208130 661.573975,864.694519 667.587463,861.725281 
	C688.400391,851.448547 700.306580,834.133057 701.362366,811.114929 
	C702.719604,781.524414 681.089905,758.231812 656.670349,752.117004 
	C629.500854,745.313721 604.376648,759.419861 592.854980,778.570251 
	C579.389099,800.951965 581.633423,828.163025 599.562500,848.021912 
	C604.345154,853.319275 610.632935,857.768433 617.054138,860.935303 
	C623.775696,864.250366 625.830383,868.413086 625.805359,875.651184 
	C625.567566,944.313721 625.666321,1012.977295 625.667725,1081.640625 
	C625.667969,1093.640015 625.278320,1105.655640 625.780212,1117.633911 
	C626.232117,1128.417847 622.560913,1136.799561 614.859070,1144.323608 
	C593.402222,1165.285278 572.498047,1186.812256 551.082092,1207.816528 
	C538.184814,1220.465942 531.976807,1235.443359 532.268616,1253.473755 
	C532.559875,1271.468140 532.330017,1289.470825 532.328735,1307.469971 
	C532.328491,1311.002930 532.328735,1314.535889 532.328735,1320.033081 
	C528.008972,1317.252563 525.344482,1316.019897 523.283020,1314.129639 
	C512.485779,1304.229004 501.917542,1294.078613 491.115265,1284.183472 
	C484.542267,1278.162598 481.459351,1270.937866 481.627838,1262.011841 
	C481.854218,1250.016724 481.960449,1238.005249 481.572296,1226.018433 
	C481.370422,1219.784546 483.792847,1216.544434 489.362946,1213.862305 
	C506.934753,1205.401245 517.707275,1191.367920 522.113464,1172.243652 
	C527.919617,1147.043457 513.177063,1118.570068 488.025543,1107.706665 
	C460.513092,1095.823486 426.834961,1106.106201 412.339325,1135.249146 
	C398.555695,1162.960571 408.859741,1196.539062 436.203369,1212.260010 
	C437.645630,1213.089355 439.087769,1214.064331 440.660492,1214.495605 
	C446.690613,1216.149414 447.828461,1220.423462 447.721436,1225.989258 
	C447.497253,1237.651001 447.911713,1249.326294 447.616577,1260.984863 
	C447.089417,1281.809326 455.547302,1298.124023 470.943726,1311.786255 
	C490.362671,1329.017822 509.280518,1346.819702 528.174500,1364.630127 
	C530.327759,1366.659912 531.410706,1370.216431 532.125183,1373.267456 
	C532.792236,1376.116211 532.327454,1379.234497 532.327515,1382.234131 
	C532.330750,1551.225830 532.330505,1720.217529 532.330505,1889.209229 
	C532.330505,1894.159058 532.330505,1899.108765 532.330505,1903.685913 
	C524.213867,1906.425415 49.562660,1907.477295 30.715511,1905.001099 
	C30.394545,1902.135986 29.753729,1898.976929 29.734377,1895.814331 
	C29.632402,1879.149048 29.599991,1862.482300 29.720284,1845.817261 
	C29.792801,1835.770752 30.325163,1835.230347 40.687794,1835.129883 
	C56.685577,1834.974731 72.686272,1835.131714 88.684570,1835.007324 
	C92.575386,1834.977051 96.461678,1834.365967 101.668549,1833.905151 
	C101.668549,1828.213501 101.668556,1823.304199 101.668556,1818.395020 
	C101.668785,1620.404785 101.663170,1422.414429 101.698799,1224.424194 
	C101.699821,1218.770630 101.627083,1213.039307 102.470757,1207.478027 
	C104.918350,1191.344238 117.021149,1179.862793 133.240082,1178.029907 
	C139.182007,1177.358398 145.192291,1177.007690 151.172058,1176.999512 
	C207.169205,1176.922729 263.166504,1176.967285 319.163757,1176.943359 
	C338.561859,1176.935059 336.280426,1177.204834 336.291290,1159.339111 
	C336.359528,1047.344604 336.315857,935.350159 336.364655,823.355652 
	C336.366669,818.719116 336.669617,814.050232 337.266724,809.452820 
	C338.780182,797.799927 344.957977,789.233215 354.798828,782.884888 
	C395.112701,756.878601 435.323669,730.712952 475.594269,704.639526 
	C519.780884,676.030762 563.996033,647.465881 608.190247,618.868896 
	C643.434570,596.063049 678.594788,573.126221 713.930176,550.462524 
	C735.048950,536.917175 761.232361,545.577271 768.617004,568.480957 
	C770.010986,572.804260 770.248596,577.644409 770.258850,582.247742 
	C770.370361,632.244995 770.330750,682.242676 770.330872,732.240234 
	C770.331360,961.229004 770.327026,1190.217773 770.358887,1419.206543 
	C770.359619,1424.424438 770.769104,1429.642212 771.007996,1435.337646 
	C788.291870,1435.337646 804.441711,1435.337646 821.279663,1435.337646 
	C821.666626,1431.880859 822.219971,1428.999878 822.268372,1426.110229 
	C822.402344,1418.112671 822.331360,1410.111816 822.331360,1402.112183 
	C822.332336,1043.796387 822.332031,685.480652 822.332397,327.164886 
	C822.332458,322.831757 822.523193,318.489471 822.308960,314.167084 
	C821.255859,292.915131 837.997559,276.456604 859.934509,276.074097 
	C875.262573,275.806854 890.598877,276.040344 905.931213,275.973450 
	C909.517273,275.957794 913.102051,275.631561 917.510315,275.406158 
	C917.810913,270.513763 918.291138,266.292084 918.295959,262.069855 
	C918.352051,213.072311 918.281677,164.074615 918.367737,115.077164 
	C918.400330,96.507332 928.088989,82.770355 944.535278,78.052582 
	C948.959778,76.783363 953.712463,76.102386 958.315918,76.095207 
	C1033.978760,75.977242 1109.641602,76.045090 1185.304565,75.991997 
	C1213.530396,75.972191 1226.130615,96.614410 1225.868896,116.697403 
	C1225.238892,165.020126 1225.652222,213.356674 1225.697388,261.687592 
	C1225.701416,265.934998 1226.092773,270.182007 1226.348022,275.307892 
	C1230.585449,275.565735 1234.135132,275.949432 1237.686523,275.968170 
	C1251.685425,276.042114 1265.699585,276.410614 1279.681152,275.915344 
	C1306.125610,274.978577 1321.975342,293.397278 1321.948120,317.861542 
	C1321.541382,683.843140 1321.665649,1049.825317 1321.682617,1415.807373 
	C1321.682861,1422.044434 1321.904785,1428.281494 1322.036865,1435.232910 
	C1339.338013,1435.232910 1355.498779,1435.232910 1372.717041,1435.232910 
	C1373.039917,1430.906006 1373.615356,1426.708862 1373.625000,1422.510254 
	C1373.700684,1389.512085 1373.668823,1356.513672 1373.668945,1323.515259 
	C1373.669434,1077.527344 1373.661865,831.539429 1373.718750,585.551514 
	C1373.719971,580.260620 1373.601074,574.731750 1374.996094,569.719727 
	C1381.449951,546.532959 1408.027588,536.742981 1428.950195,549.794983 
	C1445.626099,560.197815 1462.038208,571.024719 1478.540039,581.705322 
	C1547.623657,626.418701 1616.710938,671.126343 1685.768188,715.880371 
	C1719.877930,737.985901 1753.762207,760.444397 1788.079712,782.221252 
	C1801.973755,791.037903 1807.646118,803.351807 1807.659546,819.080444 
	C1807.683716,847.412354 1807.672974,875.744324 1807.673462,904.076233 
	C1807.674683,989.405396 1807.674438,1074.734497 1807.674683,1160.063721 
	C1807.674683,1164.977051 1807.674683,1169.890381 1807.674683,1175.825562 
	C1813.517578,1176.266113 1818.038818,1176.898193 1822.560913,1176.903809 
	C1879.224854,1176.973389 1935.888672,1176.922607 1992.552612,1176.998413 
	C1998.532471,1177.006470 2004.542603,1177.346436 2010.485352,1178.010254 
	C2027.246582,1179.882812 2039.284302,1191.510864 2041.633789,1208.189575 
	C2042.326904,1213.109741 2042.303955,1218.156250 2042.304688,1223.144775 
	C2042.335571,1421.468384 2042.331177,1619.791992 2042.331421,1818.115601 
	C2042.331421,1823.053589 2042.331421,1827.991577 2042.331421,1833.821777 
	C2047.302002,1834.303345 2051.166504,1834.969727 2055.036133,1835.001831 
	C2071.034424,1835.134888 2087.034912,1834.976685 2103.032959,1835.122437 
	C2113.784912,1835.220215 2114.230469,1835.714478 2114.292725,1846.537720 
	C2114.386475,1862.869751 2114.351074,1879.202759 2114.283447,1895.535034 
	C2114.271240,1898.467041 2113.839355,1901.397095 2113.619629,1904.100464 
	C2105.715576,1906.378784 1626.126099,1907.010254 1612.486572,1904.735352 
	C1612.225708,1900.183838 1611.706543,1895.336548 1611.705078,1890.488892 
	C1611.661621,1745.162720 1611.668823,1599.836426 1611.669189,1454.510254 
	C1611.669312,1428.844849 1611.806641,1403.178345 1611.583130,1377.514893 
	C1611.526733,1371.047363 1613.422607,1366.498779 1618.454956,1362.003052 
	C1638.312378,1344.262939 1657.688599,1325.982178 1677.158447,1307.811035 
	C1690.028442,1295.799438 1696.388550,1280.908813 1696.331787,1263.274170 
	C1696.291992,1250.941528 1696.587891,1238.601807 1696.241821,1226.278931 
	C1696.069214,1220.135376 1698.294312,1216.907837 1703.910767,1214.070679 
	C1726.093872,1202.864136 1738.104858,1184.624023 1737.513062,1159.530640 
	C1736.940674,1135.261230 1724.778564,1117.606445 1702.729492,1107.896606 
	C1681.484497,1098.540771 1660.648071,1101.098389 1642.645874,1115.910034 
	C1607.145264,1145.118896 1617.212524,1195.404053 1653.447632,1213.258179 
	C1660.074829,1216.523682 1662.855103,1220.276001 1662.475586,1227.686646 
	C1661.896729,1238.989868 1662.142700,1250.348145 1662.375000,1261.676025 
	C1662.557251,1270.562988 1659.719116,1277.892578 1653.121460,1283.945435 
	C1642.081177,1294.073975 1631.260376,1304.441772 1620.230713,1314.582153 
	C1618.383423,1316.280518 1615.946777,1317.338013 1612.343506,1319.591553 
	C1612.069458,1314.782837 1611.709717,1311.295166 1611.698608,1307.806396 
	C1611.639282,1289.140869 1611.577515,1270.474487 1611.691406,1251.809326 
	C1611.794556,1234.910522 1605.848511,1220.696655 1593.833496,1208.791382 
	C1572.050903,1187.207764 1550.561035,1165.327881 1528.687744,1143.837402 
	C1521.567993,1136.842285 1518.214966,1129.017944 1518.237183,1118.974731 
	C1518.415771,1037.979004 1518.434814,956.982605 1518.178345,875.987366 
	C1518.153931,868.283875 1520.457031,864.179443 1527.553223,860.667969 
	C1552.656006,848.245911 1564.270752,822.027954 1557.842529,794.477356 
	C1552.150757,770.083374 1528.353394,750.463745 1502.490601,750.258972 
	C1478.405884,750.068237 1457.673340,763.453674 1447.295288,786.502319 
	C1438.204956,806.691406 1442.160034,831.624512 1457.981445,847.669861 
	C1463.498169,853.264587 1470.085815,858.202271 1477.011963,861.882996 
	C1482.664551,864.886902 1484.864746,868.343140 1484.366577,874.350281 
	C1484.092041,877.660278 1484.330200,881.012451 1484.330322,884.345581 
	C1484.331299,962.341736 1484.623169,1040.339722 1484.128906,1118.332764 
	C1484.003540,1138.101318 1490.970947,1153.932251 1504.515503,1167.508789 
	C1525.702759,1188.745850 1546.779175,1210.097168 1568.231323,1231.063721 
	C1574.934326,1237.614868 1577.858643,1244.839478 1577.769775,1254.144043 
	C1577.483154,1284.139893 1577.539062,1314.140991 1577.760986,1344.137939 
	C1577.808472,1350.564453 1576.245239,1355.487793 1571.270264,1359.930054 
	C1559.603149,1370.347778 1548.465698,1381.355835 1536.991943,1391.993408 
	C1523.671631,1404.343018 1518.248535,1419.657593 1518.262939,1437.627441 
	C1518.384521,1588.286743 1518.331177,1738.945923 1518.330444,1889.605225 
	C1518.330444,1894.516235 1518.330444,1899.427246 1518.330444,1903.943970 
	C1509.533447,1906.389038 1103.289551,1906.922119 1090.882446,1904.753052 
	C1090.517700,1902.472412 1089.891357,1899.955078 1089.760010,1897.412109 
	C1089.553955,1893.422363 1089.670654,1889.415405 1089.670654,1885.415649 
	C1089.668945,1439.770874 1089.668945,994.126038 1089.669067,548.481201 
	C1089.669067,546.814636 1089.873413,545.118408 1089.636597,543.486267 
	C1088.224121,533.755432 1091.962891,528.334900 1101.043579,523.313782 
	C1123.378174,510.964020 1132.981445,490.467346 1129.874512,465.387268 
	C1126.968140,441.925659 1113.374390,425.264557 1090.825562,417.933472 
	C1062.092041,408.591553 1033.851440,419.761536 1019.661133,446.921631 
	C1006.645874,471.832458 1014.415100,503.511536 1037.390503,520.130615 
	C1039.009155,521.301392 1040.565308,522.846985 1042.395996,523.389160 
	C1053.626587,526.715515 1054.513550,534.886475 1054.507935,545.076477 
	C1054.298096,927.050903 1054.331055,1309.025513 1054.331299,1692.000000 
M250.999664,1711.126587 
	C274.959229,1711.125000 298.919098,1711.180542 322.878143,1711.067505 
	C327.041229,1711.047852 331.200989,1710.317261 335.052460,1709.944946 
	C337.160492,1697.822144 336.784668,1660.067749 334.540222,1651.994873 
	C332.157684,1651.661743 329.559998,1650.986206 326.961090,1650.981567 
	C286.696014,1650.909790 246.430542,1650.851807 206.165756,1650.979004 
	C197.643936,1651.005859 196.426544,1652.444458 196.338196,1660.994873 
	C196.204102,1673.971558 196.228821,1686.951172 196.318405,1699.928589 
	C196.387573,1709.950806 197.270172,1710.945923 207.070953,1711.063843 
	C221.045395,1711.232056 235.023239,1711.118530 250.999664,1711.126587 
M1936.326172,1650.901855 
	C1895.050659,1651.034668 1853.775146,1651.155884 1812.500000,1651.358032 
	C1811.276245,1651.364014 1810.056763,1652.221191 1808.332886,1652.870850 
	C1808.332886,1671.706909 1808.332886,1690.526489 1808.332886,1709.886230 
	C1811.881470,1710.342896 1814.802856,1711.041016 1817.725586,1711.046387 
	C1857.675903,1711.118896 1897.626587,1711.168457 1937.576660,1711.040527 
	C1946.596069,1711.011719 1947.603271,1709.725708 1947.677246,1700.271362 
	C1947.778931,1687.288330 1947.787476,1674.302979 1947.669067,1661.320068 
	C1947.588867,1652.518921 1947.460693,1652.520142 1936.326172,1650.901855 
M980.312195,208.999939 
	C980.314087,227.301697 980.255310,245.603821 980.367249,263.904907 
	C980.390503,267.702698 981.046997,271.496582 981.409729,275.271942 
	C1001.143066,275.271942 1019.619812,275.271942 1038.727295,275.271942 
	C1039.086914,271.701141 1039.629761,268.798370 1039.633789,265.894806 
	C1039.689819,225.963821 1039.696777,186.032684 1039.622803,146.101746 
	C1039.617065,142.963928 1038.920532,139.827393 1038.549683,136.728729 
	C1018.861206,136.728729 1000.385010,136.728729 980.459290,136.728729 
	C980.162109,160.619415 980.379761,183.812958 980.312195,208.999939 
M1163.687866,217.000061 
	C1163.686035,194.039688 1163.732788,171.079086 1163.634155,148.119141 
	C1163.617798,144.317825 1162.965820,140.519257 1162.607666,136.720703 
	C1142.879028,136.720703 1124.400635,136.720703 1105.277588,136.720703 
	C1104.916870,140.280472 1104.370728,143.182037 1104.366577,146.084351 
	C1104.310181,186.015335 1104.303467,225.946503 1104.376343,265.877441 
	C1104.382080,269.019012 1105.068848,272.159332 1105.436890,275.281311 
	C1125.119629,275.281311 1143.598145,275.281311 1162.844727,275.281311 
	C1164.546631,256.088226 1163.289673,237.520020 1163.687866,217.000061 
M237.000671,1301.998291 
	C230.340439,1301.998291 223.674866,1301.832153 217.021469,1302.045532 
	C210.521988,1302.253906 203.857071,1301.013062 197.755463,1303.102783 
	C195.314377,1315.344604 195.851303,1353.839722 198.466385,1361.250366 
	C243.860855,1361.250366 289.319611,1361.250366 336.060608,1361.250366 
	C336.440491,1341.440796 336.583740,1322.387085 335.928589,1301.998291 
	C302.746948,1301.998291 270.873688,1301.998291 237.000671,1301.998291 
M1930.806152,1362.001709 
	C1935.997192,1361.805664 1941.188110,1361.609497 1947.518311,1361.370483 
	C1947.325073,1341.171509 1948.686646,1322.086914 1946.709839,1302.700195 
	C1900.254517,1302.700195 1854.791992,1302.700195 1809.518188,1302.700195 
	C1806.566528,1313.863525 1807.051636,1354.114502 1810.056519,1361.303955 
	C1810.997681,1361.478638 1811.975830,1361.817505 1812.954712,1361.819458 
	C1851.587280,1361.899414 1890.219849,1361.948486 1930.806152,1362.001709 
M213.320114,1476.964355 
	C208.111206,1477.203369 202.902298,1477.442383 196.899353,1477.717896 
	C196.139465,1497.602051 195.816574,1516.308838 196.960068,1534.771240 
	C212.360397,1537.253540 328.452881,1536.407837 335.534058,1533.910156 
	C335.534058,1515.519897 335.534058,1497.057129 335.534058,1477.029419 
	C294.922028,1476.895508 255.078644,1476.987061 213.320114,1476.964355 
M1857.000000,1536.001709 
	C1871.966797,1536.001709 1886.933960,1536.062622 1901.900269,1535.984497 
	C1916.717041,1535.907349 1931.558960,1536.345337 1946.977295,1535.635376 
	C1946.977295,1515.802246 1946.977295,1497.357910 1946.977295,1478.094482 
	C1943.162109,1477.681152 1939.942993,1477.034668 1936.722778,1477.028809 
	C1897.476685,1476.958008 1858.230225,1476.945435 1818.984253,1477.041382 
	C1815.502075,1477.049927 1812.021973,1477.922729 1807.831909,1478.490112 
	C1807.685547,1497.825806 1807.365112,1516.262085 1808.070068,1536.001709 
	C1824.580933,1536.001709 1839.790405,1536.001709 1857.000000,1536.001709 
z"/>
<path fill="#0C4073" opacity="1.000000" stroke="none" 
	d="
M591.717102,1730.000000 
	C591.600647,1787.965088 591.489502,1844.930176 591.320984,1901.895142 
	C591.318298,1902.801147 590.611023,1903.704956 589.946045,1905.295166 
	C582.949463,1905.295166 575.780029,1905.295166 567.735657,1905.295166 
	C567.270142,1902.836670 566.612183,1900.368530 566.380371,1897.861084 
	C566.135986,1895.217163 566.285278,1892.535522 566.285278,1889.870361 
	C566.283081,1732.286743 566.278137,1574.703247 566.308960,1417.119629 
	C566.309814,1412.606567 566.692383,1408.093506 566.993713,1401.446167 
	C580.212341,1412.657715 592.104004,1420.697388 591.991089,1439.154419 
	C591.400269,1535.766479 591.716309,1632.384277 591.717102,1730.000000 
z"/>
<path fill="#0C4073" opacity="1.000000" stroke="none" 
	d="
M1577.717041,1686.000000 
	C1577.601440,1758.624878 1577.490112,1830.249634 1577.323975,1901.874390 
	C1577.321899,1902.780518 1576.622681,1903.685059 1575.961060,1905.287109 
	C1568.962524,1905.287109 1561.792114,1905.287109 1553.539307,1905.287109 
	C1553.133911,1902.513184 1552.418457,1899.705566 1552.367798,1896.885986 
	C1552.206543,1887.893311 1552.284058,1878.896362 1552.283936,1869.901001 
	C1552.283081,1726.308472 1552.498901,1582.715332 1552.020386,1439.124390 
	C1551.958984,1420.695923 1563.767822,1412.625366 1575.338379,1402.897705 
	C1576.369385,1404.194458 1577.117432,1404.695801 1577.118652,1405.199097 
	C1577.353027,1498.465942 1577.534058,1591.733032 1577.717041,1686.000000 
z"/>
<path fill="#000204" opacity="1.000000" stroke="none" 
	d="
M249.999634,1711.125977 
	C235.023239,1711.118530 221.045395,1711.232056 207.070953,1711.063843 
	C197.270172,1710.945923 196.387573,1709.950806 196.318405,1699.928589 
	C196.228821,1686.951172 196.204102,1673.971558 196.338196,1660.994873 
	C196.426544,1652.444458 197.643936,1651.005859 206.165756,1650.979004 
	C246.430542,1650.851807 286.696014,1650.909790 326.961090,1650.981567 
	C329.559998,1650.986206 332.157684,1651.661743 334.540222,1651.994873 
	C336.784668,1660.067749 337.160492,1697.822144 335.052460,1709.944946 
	C331.200989,1710.317261 327.041229,1711.047852 322.878143,1711.067505 
	C298.919098,1711.180542 274.959229,1711.125000 249.999634,1711.125977 
z"/>
<path fill="#000204" opacity="1.000000" stroke="none" 
	d="
M1937.229492,1650.914917 
	C1947.460693,1652.520142 1947.588867,1652.518921 1947.669067,1661.320068 
	C1947.787476,1674.302979 1947.778931,1687.288330 1947.677246,1700.271362 
	C1947.603271,1709.725708 1946.596069,1711.011719 1937.576660,1711.040527 
	C1897.626587,1711.168457 1857.675903,1711.118896 1817.725586,1711.046387 
	C1814.802856,1711.041016 1811.881470,1710.342896 1808.332886,1709.886230 
	C1808.332886,1690.526489 1808.332886,1671.706909 1808.332886,1652.870850 
	C1810.056763,1652.221191 1811.276245,1651.364014 1812.500000,1651.358032 
	C1853.775146,1651.155884 1895.050659,1651.034668 1937.229492,1650.914917 
z"/>
<path fill="#000102" opacity="1.000000" stroke="none" 
	d="
M980.312256,207.999924 
	C980.379761,183.812958 980.162109,160.619415 980.459290,136.728729 
	C1000.385010,136.728729 1018.861206,136.728729 1038.549683,136.728729 
	C1038.920532,139.827393 1039.617065,142.963928 1039.622803,146.101746 
	C1039.696777,186.032684 1039.689819,225.963821 1039.633789,265.894806 
	C1039.629761,268.798370 1039.086914,271.701141 1038.727295,275.271942 
	C1019.619812,275.271942 1001.143066,275.271942 981.409729,275.271942 
	C981.046997,271.496582 980.390503,267.702698 980.367249,263.904907 
	C980.255310,245.603821 980.314087,227.301697 980.312256,207.999924 
z"/>
<path fill="#000102" opacity="1.000000" stroke="none" 
	d="
M1163.687744,218.000061 
	C1163.289673,237.520020 1164.546631,256.088226 1162.844727,275.281311 
	C1143.598145,275.281311 1125.119629,275.281311 1105.436890,275.281311 
	C1105.068848,272.159332 1104.382080,269.019012 1104.376343,265.877441 
	C1104.303467,225.946503 1104.310181,186.015335 1104.366577,146.084351 
	C1104.370728,143.182037 1104.916870,140.280472 1105.277588,136.720703 
	C1124.400635,136.720703 1142.879028,136.720703 1162.607666,136.720703 
	C1162.965820,140.519257 1163.617798,144.317825 1163.634155,148.119141 
	C1163.732788,171.079086 1163.686035,194.039688 1163.687744,218.000061 
z"/>
<path fill="#000000" opacity="1.000000" stroke="none" 
	d="
M238.000549,1301.998291 
	C270.873688,1301.998291 302.746948,1301.998291 335.928589,1301.998291 
	C336.583740,1322.387085 336.440491,1341.440796 336.060608,1361.250366 
	C289.319611,1361.250366 243.860855,1361.250366 198.466385,1361.250366 
	C195.851303,1353.839722 195.314377,1315.344604 197.755463,1303.102783 
	C203.857071,1301.013062 210.521988,1302.253906 217.021469,1302.045532 
	C223.674866,1301.832153 230.340439,1301.998291 238.000549,1301.998291 
z"/>
<path fill="#000000" opacity="1.000000" stroke="none" 
	d="
M1929.829346,1362.001709 
	C1890.219849,1361.948486 1851.587280,1361.899414 1812.954712,1361.819458 
	C1811.975830,1361.817505 1810.997681,1361.478638 1810.056519,1361.303955 
	C1807.051636,1354.114502 1806.566528,1313.863525 1809.518188,1302.700195 
	C1854.791992,1302.700195 1900.254517,1302.700195 1946.709839,1302.700195 
	C1948.686646,1322.086914 1947.325073,1341.171509 1947.518311,1361.370483 
	C1941.188110,1361.609497 1935.997192,1361.805664 1929.829346,1362.001709 
z"/>
<path fill="#000000" opacity="1.000000" stroke="none" 
	d="
M214.278473,1476.964600 
	C255.078644,1476.987061 294.922028,1476.895508 335.534058,1477.029419 
	C335.534058,1497.057129 335.534058,1515.519897 335.534058,1533.910156 
	C328.452881,1536.407837 212.360397,1537.253540 196.960068,1534.771240 
	C195.816574,1516.308838 196.139465,1497.602051 196.899353,1477.717896 
	C202.902298,1477.442383 208.111206,1477.203369 214.278473,1476.964600 
z"/>
<path fill="#000000" opacity="1.000000" stroke="none" 
	d="
M1856.000000,1536.001709 
	C1839.790405,1536.001709 1824.580933,1536.001709 1808.070068,1536.001709 
	C1807.365112,1516.262085 1807.685547,1497.825806 1807.831909,1478.490112 
	C1812.021973,1477.922729 1815.502075,1477.049927 1818.984253,1477.041382 
	C1858.230225,1476.945435 1897.476685,1476.958008 1936.722778,1477.028809 
	C1939.942993,1477.034668 1943.162109,1477.681152 1946.977295,1478.094482 
	C1946.977295,1497.357910 1946.977295,1515.802246 1946.977295,1535.635376 
	C1931.558960,1536.345337 1916.717041,1535.907349 1901.900269,1535.984497 
	C1886.933960,1536.062622 1871.966797,1536.001709 1856.000000,1536.001709 
z"/>
</svg>